# xmcd
#
# Track frame offsets:
#	150
#	18717
#	35354
#	52485
#	71811
#	89633
#	107104
#	123908
#	142795
#	161986
#	181320
#	190027
#	209341
#	225131
#	244190
#	260797
#	276640
#	296347
#	313180
#
# Disc length: 4428 seconds
#
# Revision: 2
# Processed by: cddbd v1.5.2PL0 Copyright (c) Steve Scherf et al.
# Submitted via: audiograbber 1.83.01
#
DISCID=28114a13
DTITLE=Snakes in Paradise - Snakes in Paradise
DYEAR=1994
DGENRE=Hard Rock
TTITLE0=Fly Away
TTITLE1=The Night Goes On
TTITLE2=Take Me To The River
TTITLE3=Somebody To Blame
TTITLE4=Rather Stand The Rain
TTITLE5=Deep In Your Heart
TTITLE6=Book Of My Life
TTITLE7=When The  Dream Is Gone
TTITLE8=Can´t Come Home
TTITLE9=No Easy Way Out
TTITLE10=Sweet Sixteen
TTITLE11=Rewrite the Story
TTITLE12=Love Got Wings
TTITLE13=How Can You Say
TTITLE14=Book Ok My Life
TTITLE15=Love Got Wings (from 1993 EP)
TTITLE16=Heart In Flame (from 1993 EP)
TTITLE17=Play With Fire (from 1993 EP)
TTITLE18=How Can You Say (from 1993 EP)
EXTD=SNAKES IN PARADISE ARE:\nStefan Berggren: lead and backing vocals\n\nTomas J
EXTD=akobsson Guitar\nStefan Jonsson: Guitar and backing vocals\n Tomas Jansson: 
EXTD=Keyboard and backing vocals\nThomas Thorberg: Bass and backing vocals\nPeter P
EXTD=ettersen :Drums and backing vocals\n\nThis album is dedicated to the memory 
EXTD=of Holger Berggren\n\nSNAKES IN PARADISE wishes to thank:\nJorgen Holmsted
EXTD=t/Magnus Sóderqvist/Góran Lindberg/Anders Alenius.Tony Borg/Jake Samuel/Ro
EXTD=y Colegate/Jon Hógberg/Zepp Urgard/Fnppe/Par Náslin/Hans Desmond/Mark Free
EXTD=/Diana Deuüt Obin Randatl/Erik Bergendahl/Bengt Gronkvist/'Ludde Lmdstróm/
EXTD=Bussiga Berra/Gitarr-Gurra/Gaes lergwatlAThomas Berggren/Smus bas/Tompa Th
EXTD=orberg/Momca Ekstróm/Man Smuggler/Eddie /lountam/Kent Pettersson/Thomas Ná
EXTD=slin/Bjórn Axelsson/PA ,Tompa Pettersson/Charlie Hillson/Jór-\ngen Anderss
EXTD=on/Johan Lincislróm/Angelica Debram/BjÓrn and Benny Jansson and the Thorberg f
EXTD=amily.\nA special thanks to all our fans and to our families!\n\nNL-DISTRI
EXTD=BUTION would like to thank:\nTONI MALCHOW, for bemg our Rock agent!\nMAGNU
EXTD=S SODERKVIST for his assistance!\nTOMAS JACOBSSON - the architect of this 
EXTD=re-release!\nJIRI MLEZIWA at 911 RECORDS\nHEDA and KAROLINA at NORTHERN ST
EXTD=AR\nRecorded at Hillson Music Studios and mixed al Walkers studio L.A\nPro
EXTD=duced by Brett Walker\nPtiotography and cover art by Erik Bergendahl. upda
EXTD=ted by liona Burkert (Portraitspint]\nAdditional Guitar and Vocals by Bret
EXTD=t Walker (appears courtesy of Empire Records]\n\n\n
EXTT0=
EXTT1=
EXTT2=
EXTT3=
EXTT4=
EXTT5=
EXTT6=
EXTT7=
EXTT8=
EXTT9=
EXTT10=
EXTT11=
EXTT12=
EXTT13=
EXTT14=
EXTT15=
EXTT16=
EXTT17=
EXTT18=
PLAYORDER=
